<mxfile host="65bd71144e">
    <diagram id="5jTpbaQxwh-lPoNhfsmV" name="PÃ¡gina-1">
        <mxGraphModel dx="434" dy="392" grid="1" gridSize="10" guides="1" tooltips="1" connect="1" arrows="1" fold="1" page="1" pageScale="1" pageWidth="827" pageHeight="1169" math="0" shadow="0">
            <root>
                <mxCell id="0"/>
                <mxCell id="1" parent="0"/>
                <mxCell id="2" value="MAIN" style="rounded=0;whiteSpace=wrap;html=1;" vertex="1" parent="1">
                    <mxGeometry x="110" y="60" width="120" height="60" as="geometry"/>
                </mxCell>
                <mxCell id="3" value="APP" style="rounded=1;whiteSpace=wrap;html=1;" vertex="1" parent="1">
                    <mxGeometry x="110" y="150" width="120" height="60" as="geometry"/>
                </mxCell>
                <mxCell id="4" value="LOGIN" style="rounded=1;whiteSpace=wrap;html=1;" vertex="1" parent="1">
                    <mxGeometry x="30" y="250" width="120" height="60" as="geometry"/>
                </mxCell>
                <mxCell id="5" value="SIGNIN" style="ellipse;whiteSpace=wrap;html=1;aspect=fixed;" vertex="1" parent="1">
                    <mxGeometry x="20" y="350" width="80" height="80" as="geometry"/>
                </mxCell>
                <mxCell id="6" value="FORGOT" style="ellipse;whiteSpace=wrap;html=1;aspect=fixed;" vertex="1" parent="1">
                    <mxGeometry x="80" y="420" width="80" height="80" as="geometry"/>
                </mxCell>
                <mxCell id="7" value="SIGNUP" style="ellipse;whiteSpace=wrap;html=1;aspect=fixed;" vertex="1" parent="1">
                    <mxGeometry x="150" y="350" width="80" height="80" as="geometry"/>
                </mxCell>
            </root>
        </mxGraphModel>
    </diagram>
</mxfile>